<svg width="23" height="24" viewBox="0 0 23 24" fill="none" xmlns="http://www.w3.org/2000/svg">
<g clip-path="url(#clip0_248_613)">
<path d="M9.31193 20.8518C9.8216 21.4785 10.5701 21.884 11.3917 21.9787C12.2133 22.0734 13.0402 21.8495 13.6896 21.3564C13.8893 21.2106 14.069 21.041 14.2244 20.8518M3.1317 13.7871V13.5681C3.1645 12.9202 3.37647 12.2925 3.74576 11.7496C4.36045 11.0975 4.78124 10.2983 4.96398 9.43598C4.96398 8.7695 4.96398 8.0935 5.0234 7.42703C5.33044 4.21842 8.56911 2 11.7682 2H11.8474C15.0465 2 18.2851 4.21842 18.6021 7.42703C18.6615 8.0935 18.6021 8.7695 18.6516 9.43598C18.8368 10.3003 19.2572 11.1019 19.8698 11.7591C20.2419 12.2972 20.4542 12.9227 20.4839 13.5681V13.7776C20.506 14.648 20.1999 15.4968 19.6222 16.1674C18.8588 16.9515 17.8228 17.4393 16.7104 17.5384C13.4484 17.8812 10.1573 17.8812 6.8953 17.5384C5.78415 17.435 4.74965 16.9479 3.98346 16.1674C3.41465 15.4963 3.11273 14.6526 3.1317 13.7871Z" stroke="#363232" stroke-width="2" stroke-linecap="round" stroke-linejoin="round"/>
</g>
<defs>
<clipPath id="clip0_248_613">
<rect width="23.7638" height="22.5866" fill="white" transform="translate(0.367188 0.564697)"/>
</clipPath>
</defs>
</svg>
