<svg width="20" height="20" viewBox="0 0 20 20" fill="none" xmlns="http://www.w3.org/2000/svg">
<g clip-path="url(#clip0_2335_7775)">
<path d="M2.22261 1C0.996701 1 0 2.00898 0 3.25V16.75C0 17.991 0.996701 19 2.22261 19H11.113C12.3389 19 13.3356 17.991 13.3356 16.75V16.0715C13.2419 16.1102 13.1481 16.1418 13.0509 16.1664L10.9637 16.6937C10.8595 16.7184 10.7553 16.7359 10.6512 16.743C10.6199 16.7465 10.5886 16.75 10.5574 16.75H8.33478C8.12294 16.75 7.93193 16.6305 7.83817 16.4406L7.53256 15.8184C7.47352 15.6988 7.35544 15.625 7.22695 15.625C7.09845 15.625 6.97691 15.6988 6.92134 15.8184L6.61573 16.4406C6.51502 16.648 6.29623 16.7711 6.0705 16.75C5.84476 16.7289 5.65029 16.5707 5.58778 16.3527L5.00087 14.3945L4.66053 15.5477C4.44869 16.2613 3.79927 16.75 3.06303 16.75H2.77826C2.47265 16.75 2.22261 16.4969 2.22261 16.1875C2.22261 15.8781 2.47265 15.625 2.77826 15.625H3.06303C3.3096 15.625 3.52492 15.4633 3.59437 15.2242L4.11182 13.484C4.2299 13.0867 4.59107 12.8125 5.00087 12.8125C5.41066 12.8125 5.77184 13.0867 5.88991 13.484L6.29276 14.841C6.54975 14.623 6.87619 14.5 7.22348 14.5C7.77566 14.5 8.27921 14.8164 8.52579 15.3156L8.67859 15.625H8.98767C8.88001 15.3156 8.85918 14.9781 8.93905 14.6477L9.45998 12.5348C9.55721 12.1375 9.75864 11.7789 10.0434 11.4906L13.3356 8.15781V6.625H8.89043C8.27574 6.625 7.77913 6.12227 7.77913 5.5V1H2.22261ZM8.89043 1V5.5H13.3356L8.89043 1ZM19.0936 5.91133C18.5518 5.36289 17.6732 5.36289 17.128 5.91133L16.107 6.94492L18.5727 9.44102L19.5937 8.40742C20.1354 7.85898 20.1354 6.96953 19.5937 6.41758L19.0936 5.91133ZM10.8317 12.2852C10.6894 12.4293 10.5886 12.6086 10.54 12.809L10.0191 14.9219C9.97048 15.1152 10.026 15.3156 10.165 15.4563C10.3039 15.5969 10.5018 15.6531 10.6928 15.6039L12.78 15.0766C12.9745 15.0273 13.1551 14.9254 13.2974 14.7812L17.7843 10.2355L15.3186 7.73945L10.8317 12.2852Z" fill="#514C47"/>
</g>
<defs>
<clipPath id="clip0_2335_7775">
<rect width="20" height="20" fill="white"/>
</clipPath>
</defs>
</svg>
