<svg width="20" height="20" viewBox="0 0 20 20" fill="none" xmlns="http://www.w3.org/2000/svg">
<g clip-path="url(#clip0_2335_1182)">
<path d="M8.04937 16.0919C9.837 16.0919 11.5735 15.4955 12.9838 14.397L18.3044 19.7177C18.7019 20.1015 19.3353 20.0905 19.7191 19.6931C20.0936 19.3053 20.0936 18.6907 19.7191 18.303L14.3985 12.9824C17.1242 9.47358 16.4895 4.41949 12.9807 1.69374C9.47194 -1.03202 4.41791 -0.397284 1.69215 3.1115C-1.03361 6.62028 -0.398871 11.6744 3.10991 14.4001C4.52252 15.4975 6.26057 16.0928 8.04937 16.0919ZM3.77429 3.7728C6.13538 1.41167 9.96346 1.41162 12.3246 3.77271C14.6857 6.1338 14.6858 9.96188 12.3247 12.323C9.96359 14.6841 6.13551 14.6842 3.77437 12.3231C3.77433 12.3231 3.77433 12.3231 3.77429 12.323C1.4132 9.97913 1.39929 6.165 3.74317 3.80391C3.75353 3.79351 3.76389 3.78316 3.77429 3.7728Z" fill="#36322E"/>
</g>
<defs>
<clipPath id="clip0_2335_1182">
<rect width="20" height="20" fill="white"/>
</clipPath>
</defs>
</svg>
