<svg width="20" height="20" viewBox="0 0 20 20" fill="none" xmlns="http://www.w3.org/2000/svg">
<g clip-path="url(#clip0_2335_7770)">
<g clip-path="url(#clip1_2335_7770)">
<path d="M1.98661 7.85709C1.98661 3.51774 5.50437 0 9.84375 0C14.1831 0 17.7009 3.51774 17.7009 7.85709V8.66137C18.9332 8.97858 19.8438 10.0972 19.8438 11.4285V14.2856C19.8438 15.8635 18.5645 17.1427 16.9866 17.1427C16.8219 17.1427 16.6604 17.1288 16.5033 17.102C15.5253 18.9614 13.5327 20.1021 11.4151 19.9928C11.3682 19.9975 11.3205 19.9999 11.2723 19.9999H9.84375C9.05475 19.9999 8.41518 19.3603 8.41518 18.5713C8.41518 17.7823 9.05475 17.1427 9.84375 17.1427H11.2723C12.0183 17.1427 12.6307 17.7144 12.6953 18.4436C13.7473 18.1716 14.662 17.4794 15.1976 16.5135C14.5463 15.9898 14.1295 15.1864 14.1295 14.2856V11.4285C14.1295 10.0972 15.04 8.97858 16.2723 8.66137V7.85709C16.2723 4.30671 13.3942 1.42856 9.84375 1.42856C6.29332 1.42856 3.41518 4.30671 3.41518 7.85709V8.66137C4.64749 8.97858 5.55804 10.0972 5.55804 11.4285V14.2856C5.55804 15.8635 4.27885 17.1427 2.70089 17.1427C1.12294 17.1427 -0.15625 15.8635 -0.15625 14.2856V11.4285C-0.15625 10.0972 0.7543 8.97858 1.98661 8.66137V7.85709Z" fill="#514C47"/>
</g>
</g>
<defs>
<clipPath id="clip0_2335_7770">
<rect width="20" height="20" fill="white"/>
</clipPath>
<clipPath id="clip1_2335_7770">
<rect width="20" height="20" fill="white"/>
</clipPath>
</defs>
</svg>
