<svg width="38" height="30" viewBox="0 0 38 30" fill="none" xmlns="http://www.w3.org/2000/svg">
<g clip-path="url(#clip0_2443_1292)">
<path d="M8.4375 28.125C3.7793 28.125 0 24.3457 0 19.6875C0 16.0078 2.35547 12.8789 5.63672 11.7246C5.63086 11.5664 5.625 11.4082 5.625 11.25C5.625 6.07031 9.82031 1.875 15 1.875C18.4746 1.875 21.5039 3.76172 23.127 6.57422C24.0176 5.97656 25.0957 5.625 26.25 5.625C29.3555 5.625 31.875 8.14453 31.875 11.25C31.875 11.9648 31.7402 12.6445 31.5 13.2773C34.9219 13.9688 37.5 16.998 37.5 20.625C37.5 24.7676 34.1426 28.125 30 28.125H8.4375ZM13.0664 15.4102C12.5156 15.9609 12.5156 16.8516 13.0664 17.3965C13.6172 17.9414 14.5078 17.9473 15.0527 17.3965L17.3379 15.1113V22.9688C17.3379 23.748 17.9648 24.375 18.7441 24.375C19.5234 24.375 20.1504 23.748 20.1504 22.9688V15.1113L22.4355 17.3965C22.9863 17.9473 23.877 17.9473 24.4219 17.3965C24.9668 16.8457 24.9727 15.9551 24.4219 15.4102L19.7344 10.7227C19.1836 10.1719 18.293 10.1719 17.748 10.7227L13.0605 15.4102H13.0664Z" fill="#C5C5C5"/>
</g>
<defs>
<clipPath id="clip0_2443_1292">
<path d="M0 0H37.5V30H0V0Z" fill="white"/>
</clipPath>
</defs>
</svg>
