<svg width="14" height="19" viewBox="0 0 14 19" fill="none" xmlns="http://www.w3.org/2000/svg">
<path d="M14 19H0V0H14V19Z" stroke="#E5E7EB"/>
<path d="M2.33333 2.63867C1.32214 2.63867 0.5 3.46704 0.5 4.48589V15.5692C0.5 16.5881 1.32214 17.4164 2.33333 17.4164H9.66667C10.6779 17.4164 11.5 16.5881 11.5 15.5692V7.25673H7.83333C7.3263 7.25673 6.91667 6.84399 6.91667 6.33312V2.63867H2.33333ZM7.83333 2.63867V6.33312H11.5L7.83333 2.63867ZM6.6875 14.4147C6.6875 14.7986 6.38099 15.1074 6 15.1074C5.61901 15.1074 5.3125 14.7986 5.3125 14.4147V11.4678L4.42448 12.3626C4.15521 12.6339 3.71979 12.6339 3.45339 12.3626C3.18698 12.0913 3.18411 11.6525 3.45339 11.3841L5.51589 9.30599C5.78516 9.03468 6.22057 9.03468 6.48698 9.30599L8.54948 11.3841C8.81875 11.6554 8.81875 12.0941 8.54948 12.3626C8.28021 12.631 7.84479 12.6339 7.57839 12.3626L6.69036 11.4678V14.4147H6.6875Z" fill="#36322E"/>
</svg>
